<?xml version="1.0" encoding="UTF-8" standalone="no"?>
<!-- Created with Inkscape (http://www.inkscape.org/) -->

<svg
   width="137.06459mm"
   height="91.50425mm"
   viewBox="0 0 137.06459 91.50425"
   version="1.1"
   id="svg1"
   xml:space="preserve"
   xmlns="http://www.w3.org/2000/svg"
   xmlns:svg="http://www.w3.org/2000/svg"><defs
     id="defs1" /><g
     id="layer1"
     transform="translate(396.91251,-87.064506)"><path
       d="m -344.25004,177.49829 c 1.09141,-0.59418 4.24656,-2.538 7.01146,-4.31961 4.82822,-3.11113 5.18256,-3.28934 8.95722,-4.50498 7.61249,-2.45161 13.52785,-6.09736 22.84113,-14.07745 4.38084,-3.75372 6.15809,-4.87755 9.38469,-5.93432 l 2.56834,-0.84118 5.81437,0.63214 c 3.1979,0.34767 5.77583,0.56993 5.72872,0.49392 -0.0471,-0.076 -2.39147,-1.18686 -5.2097,-2.46853 -4.65638,-2.11763 -5.17152,-2.41802 -5.644,-3.29117 -1.03163,-1.90648 -3.88056,-3.46187 -7.35858,-4.01749 -1.9334,-0.30886 -3.24208,-0.1954 -6.7874,0.58848 -3.43677,0.75988 -7.17319,0.75862 -9.65729,-0.003 -6.12035,-1.87715 -13.57604,-9.57928 -19.80262,-20.45719 -2.43984,-4.26241 -3.13283,-5.14166 -5.01305,-6.36041 -2.61101,-1.69244 -9.41193,-4.93218 -18.84058,-8.97505 -12.77623,-5.478253 -20.77709,-9.117953 -28.97187,-13.179683 -4.00183,-1.9835 -7.36534,-3.64687 -7.47448,-3.69637 -0.44675,-0.20261 -0.14845,1.02796 0.6238,2.57337 0.99436,1.98988 3.18002,4.40863 5.44298,6.02345 0.91975,0.65632 1.67228,1.2357 1.67228,1.2875 0,0.0518 -0.54446,-0.14665 -1.20991,-0.44101 -1.39099,-0.6153 -1.96509,-0.5065 -1.96509,0.37241 0,1.8374 3.32879,6.070543 6.37135,8.102283 l 1.54725,1.03321 -1.04889,-0.14068 c -0.94455,-0.12669 -1.04888,-0.0833 -1.04888,0.43646 0,1.66222 2.86867,4.46093 6.94671,6.7773 l 1.08205,0.61461 -1.10396,-0.14807 c -1.28666,-0.17258 -1.38265,0.0697 -0.55697,1.40567 1.2208,1.97529 6.95771,6.36143 10.3122,7.88416 0.9865,0.44781 1.25534,0.66029 0.84862,0.6707 -1.54228,0.0395 -0.15606,1.52053 3.24114,3.46286 4.59994,2.62999 5.94237,3.85934 12.99262,11.89821 4.71602,5.37733 12.59197,14.55462 14.04528,16.36597 l 1.34919,1.68159 -0.77823,1.15311 c -0.42802,0.63421 -1.48694,2.73141 -2.35315,4.66044 -1.31533,2.92924 -1.82573,3.76356 -3.09657,5.06182 -1.36267,1.39208 -8.656,7.55928 -10.84495,9.17042 -0.47115,0.34679 -0.8219,0.66526 -0.77945,0.70771 0.17822,0.17822 8.90178,-2.22118 10.99259,-3.02349 0.21911,-0.0841 -0.27841,0.69536 -1.10561,1.73211 -2.10011,2.63209 -2.05596,2.68694 0.87724,1.09005 z m 37.46929,-39.92897 c 1.39757,-0.28756 3.19731,-0.52284 3.99942,-0.52284 h 1.45838 l 2.8143,-2.84427 c 3.45203,-3.48879 8.22951,-7.41532 17.85288,-14.67298 10.84775,-8.18106 14.09161,-11.12367 18.12861,-16.44507 1.1979,-1.57901 2.67919,-4.085713 2.67919,-4.533823 0,-0.082 -0.8632,0.43219 -1.91823,1.14272 -6.12097,4.122303 -11.82689,7.609543 -24.54009,14.997963 -14.92418,8.67336 -21.36735,13.15099 -27.55988,19.15254 l -3.52866,3.41983 0.79375,0.31379 c 2.25307,0.89067 5.46588,0.8881 9.82033,-0.008 z"
       style="fill:#4095BF"
       id="path1-0" /></g></svg>
